<svg width="518" height="120" viewBox="0 0 518 120" fill="none" xmlns="http://www.w3.org/2000/svg">
<path d="M64 9C35.8335 9 13 31.8335 13 60C13 88.1665 35.8335 111 64 111C92.1665 111 115 88.1665 115 60C115 31.8335 92.1665 9 64 9ZM44.124 20.0349C44.1952 20.7034 44.485 21.36 45.0167 21.8917C46.5151 23.3901 46.1052 25.9161 44.2099 26.8638L42.3551 27.7912C41.9129 28.0123 41.5093 28.3032 41.1597 28.6528L38.0985 31.714C36.391 33.4215 33.8655 34.0177 31.5747 33.2541L31.4526 33.2134C30.471 32.8862 29.4634 32.8109 28.5018 32.9541C32.6333 27.5398 37.9753 23.0987 44.124 20.0349ZM24.999 81.7034L30.4837 80.3322C33.3216 79.6227 35.3125 77.0728 35.3125 74.1476V72.9743C35.3125 70.8428 36.3778 68.8523 38.1513 67.67L38.4048 67.501C41.752 65.2695 42.221 60.5335 39.3764 57.6889L32.8984 51.2109C32.4032 50.7157 32.125 50.0441 32.125 49.3437C32.125 47.1677 34.6092 45.9256 36.35 47.2312L43.299 52.443C44.2649 53.1674 45.5571 53.2839 46.637 52.744C48.7564 51.6843 51.25 53.2255 51.25 55.595V58.4927C51.25 59.4755 51.5409 60.4364 52.0861 61.2542L57.1514 68.8522C57.4657 69.3236 57.7158 69.8349 57.895 70.3724L62.547 84.3285C63.4147 86.9316 65.8508 88.6875 68.5948 88.6875H68.9677C71.7117 88.6875 74.1478 86.9316 75.0155 84.3285L79.6675 70.3724C79.8467 69.8349 80.0968 69.3236 80.4111 68.8522L85.4533 61.2887C85.9901 60.4836 86.8937 60 87.8614 60C88.878 60 89.8144 60.5324 90.3605 61.3899C93.9124 66.9671 100.751 75.9375 105.438 75.9375C105.526 75.9375 105.613 75.9345 105.698 75.9285C99.2847 92.7082 83.034 104.625 64 104.625C47.2322 104.625 32.6245 95.377 24.999 81.7034Z" fill="#624CF5"/>
<path d="M153.573 83L154.912 64.2442L155.531 50.5724L155.702 44.4922C155.748 42.7288 155.771 41.0342 155.771 39.4082L155.737 36.1105C159.332 36.1563 162.023 36.1792 163.809 36.1792C165.206 36.1792 167.634 36.1563 171.092 36.1105C170.542 42.683 170.187 48.4884 170.027 53.5266L188.714 53.4922C188.828 51.6144 188.931 49.0838 189.023 45.9006C189.138 42.6945 189.195 40.5075 189.195 39.3395C189.195 38.7212 189.172 37.6448 189.126 36.1105L197.267 36.1792C198.115 36.1792 200.519 36.1563 204.481 36.1105C203.657 47.8815 203.13 56.6411 202.901 62.3892C202.672 68.1144 202.557 74.9847 202.557 83L195.069 82.9313C193.947 82.9313 191.267 82.9542 187.031 83C187.603 77.5496 187.993 71.2061 188.199 63.9694H169.477L168.893 83L160.924 82.9313C159.916 82.9313 157.466 82.9542 153.573 83ZM244.603 72.6259C244.306 74 243.733 77.3206 242.886 82.5878C240.229 83.1145 237.997 83.458 236.187 83.6183C234.378 83.8015 232.546 83.8931 230.691 83.8931C227.966 83.8931 225.458 83.6985 223.168 83.3092C220.878 82.9427 218.897 82.2786 217.225 81.3168C215.577 80.355 214.191 79.1641 213.069 77.7443C211.947 76.3015 211.088 74.5954 210.493 72.6259C209.92 70.6564 209.634 68.6297 209.634 66.5457C209.634 63.6144 210.218 60.7518 211.386 57.9579C212.554 55.1411 214.054 52.9426 215.886 51.3625C217.741 49.7823 219.871 48.6602 222.275 47.996C224.68 47.3319 227.142 46.9998 229.661 46.9998C232.271 46.9998 234.756 47.309 237.115 47.9273C239.497 48.5228 241.512 49.5762 243.161 51.0876C244.81 52.5991 245.978 54.3052 246.665 56.206C247.374 58.1068 247.729 60.1564 247.729 62.3549C247.729 63.6602 247.581 65.1144 247.283 66.7175L223.203 66.7518C223.18 67.1183 223.168 67.4503 223.168 67.748C223.168 70.2213 224.05 72.0419 225.813 73.2099C227.577 74.3778 229.729 74.9618 232.271 74.9618C233.783 74.9618 235.5 74.79 237.424 74.4465C239.371 74.0801 241.764 73.4732 244.603 72.6259ZM223.477 61.4961H234.813C234.836 61.1068 234.848 60.7747 234.848 60.4999C234.848 59.3091 234.63 58.29 234.195 57.4426C233.783 56.5953 233.176 55.977 232.374 55.5877C231.596 55.1984 230.714 55.0037 229.729 55.0037C229.042 55.0037 228.378 55.1182 227.737 55.3472C227.096 55.5533 226.512 55.8739 225.985 56.309C225.481 56.7213 225.058 57.2022 224.714 57.7518C224.371 58.3014 224.119 58.8396 223.958 59.3663C223.798 59.8701 223.638 60.5801 223.477 61.4961ZM252.161 82.9656L252.779 75.5801L254.119 49.9197L254.497 36.1105C257.68 36.1563 260.073 36.1792 261.676 36.1792C263.76 36.1792 266.062 36.1563 268.581 36.1105L267.791 46.6563L266.52 72.6259L266.245 83C263.794 82.9542 261.584 82.9313 259.615 82.9313L252.161 82.9656ZM272.978 99.0764C273.413 94.3817 273.779 89.6985 274.077 85.0267C274.604 77.0343 274.959 70.3358 275.142 64.9312C275.348 59.5037 275.451 54.1335 275.451 48.8205C280.1 48.1105 283.741 47.6411 286.375 47.4121C289.008 47.1602 291.642 47.0342 294.275 47.0342C297.573 47.0342 300.608 47.3777 303.379 48.0647C306.15 48.7518 308.371 49.9655 310.043 51.706C311.737 53.4464 313.008 55.519 313.856 57.9236C314.703 60.3281 315.127 62.8472 315.127 65.4808C315.127 67.8854 314.783 70.2213 314.096 72.4885C313.409 74.7328 312.356 76.7595 310.936 78.5687C309.516 80.3779 307.879 81.7176 306.024 82.5878C304.192 83.458 302.142 83.8931 299.875 83.8931C298.753 83.8931 297.585 83.7786 296.371 83.5496C295.18 83.3435 294.046 83.0344 292.97 82.6221C291.894 82.2099 290.989 81.7977 290.256 81.3855C289.546 80.9504 288.653 80.332 287.577 79.5305L287.199 89.1145C287.039 93.5115 286.959 96.8321 286.959 99.0764C284.302 99.0306 282.023 99.0077 280.123 99.0077C278.474 99.0077 276.092 99.0306 272.978 99.0764ZM288.814 57.58C288.63 58.6106 288.504 59.4579 288.436 60.122C288.367 60.7633 288.298 61.6449 288.23 62.7671C288.161 63.8663 288.127 64.748 288.127 65.4121C288.127 67.29 288.413 68.8702 288.985 70.1526C289.581 71.4122 290.394 72.3969 291.424 73.1068C292.478 73.7939 293.6 74.1374 294.791 74.1374C296.05 74.1374 297.207 73.7824 298.26 73.0725C299.314 72.3396 300.15 71.2519 300.768 69.8091C301.386 68.3663 301.695 66.7404 301.695 64.9312C301.695 62.4808 301.043 60.5114 299.737 59.0228C298.455 57.5342 296.577 56.79 294.104 56.79C292.546 56.79 290.783 57.0533 288.814 57.58ZM333.127 83L331.856 78.8091L323.474 54.6602L316.879 36.1105C319.993 36.1563 322.764 36.1792 325.192 36.1792C326.68 36.1792 329.016 36.1563 332.199 36.1105C332.726 38.1487 333.138 39.6945 333.436 40.7479C333.848 42.122 334.627 44.6067 335.772 48.2021L340.821 64.4503C341.325 66.145 341.944 68.3549 342.676 71.0801L344.257 67.1297L356.245 40.8853C356.451 40.4044 356.68 39.8548 356.932 39.2365C357.207 38.6181 357.631 37.5761 358.203 36.1105C361.524 36.1563 364.192 36.1792 366.207 36.1792C367.467 36.1792 369.963 36.1563 373.696 36.1105C371.36 40.4616 368.715 45.5456 365.76 51.3625L353.909 74.8587C352.764 77.1488 351.482 79.8626 350.062 83C346.215 82.9542 343.466 82.9313 341.818 82.9313C340.283 82.9313 337.386 82.9542 333.127 83ZM407.291 72.6259C406.993 74 406.421 77.3206 405.574 82.5878C402.917 83.1145 400.684 83.458 398.875 83.6183C397.066 83.8015 395.234 83.8931 393.379 83.8931C390.654 83.8931 388.146 83.6985 385.856 83.3092C383.566 82.9427 381.585 82.2786 379.913 81.3168C378.264 80.355 376.879 79.1641 375.757 77.7443C374.635 76.3015 373.776 74.5954 373.18 72.6259C372.608 70.6564 372.322 68.6297 372.322 66.5457C372.322 63.6144 372.906 60.7518 374.073 57.9579C375.241 55.1411 376.741 52.9426 378.573 51.3625C380.428 49.7823 382.558 48.6602 384.963 47.996C387.367 47.3319 389.829 46.9998 392.348 46.9998C394.959 46.9998 397.444 47.309 399.803 47.9273C402.184 48.5228 404.2 49.5762 405.848 51.0876C407.497 52.5991 408.665 54.3052 409.352 56.206C410.062 58.1068 410.417 60.1564 410.417 62.3549C410.417 63.6602 410.268 65.1144 409.971 66.7175L385.89 66.7518C385.867 67.1183 385.856 67.4503 385.856 67.748C385.856 70.2213 386.738 72.0419 388.501 73.2099C390.264 74.3778 392.417 74.9618 394.959 74.9618C396.471 74.9618 398.188 74.79 400.112 74.4465C402.058 74.0801 404.451 73.4732 407.291 72.6259ZM386.165 61.4961H397.501C397.524 61.1068 397.535 60.7747 397.535 60.4999C397.535 59.3091 397.318 58.29 396.883 57.4426C396.471 56.5953 395.864 55.977 395.062 55.5877C394.283 55.1984 393.402 55.0037 392.417 55.0037C391.73 55.0037 391.066 55.1182 390.425 55.3472C389.783 55.5533 389.199 55.8739 388.673 56.309C388.169 56.7213 387.745 57.2022 387.402 57.7518C387.058 58.3014 386.806 58.8396 386.646 59.3663C386.486 59.8701 386.325 60.5801 386.165 61.4961ZM414.883 83L415.948 67.748L416.291 58.9884C416.314 57.4083 416.326 55.7938 416.326 54.1449C416.326 52.4732 416.303 50.4006 416.257 47.9273C419.028 47.9731 421.226 47.996 422.852 47.996C424.753 47.996 426.94 47.9731 429.413 47.9273L429.276 51.809C430.169 50.8014 430.902 50.0571 431.474 49.5762C432.047 49.0724 432.7 48.6258 433.433 48.2365C434.165 47.8243 434.933 47.5266 435.734 47.3434C436.536 47.1373 437.371 47.0342 438.242 47.0342C439.066 47.0342 439.982 47.1487 440.99 47.3777C441.013 49.8739 441.07 51.935 441.162 53.5609L441.402 58.851C440.142 58.4846 438.963 58.3014 437.864 58.3014C436.49 58.3014 435.299 58.5075 434.291 58.9197C433.307 59.3091 432.425 59.9159 431.646 60.7404C430.891 61.5419 430.284 62.5495 429.826 63.7633C429.368 64.977 429.047 66.9007 428.864 69.5343C428.681 72.1679 428.589 75.1794 428.589 78.5687C428.589 79.7595 428.635 81.2366 428.726 83C426.505 82.9542 424.272 82.9313 422.028 82.9313C419.807 82.9313 417.425 82.9542 414.883 83ZM444.871 82.3473C444.78 81.3397 444.688 80.2862 444.597 79.187C444.505 78.0649 444.356 76.5305 444.15 74.5839L443.875 72.1106C446.097 72.9809 448.009 73.6335 449.612 74.0687C451.215 74.4809 452.692 74.687 454.043 74.687C455.165 74.687 456.07 74.5839 456.757 74.3778C457.467 74.1717 457.982 73.874 458.303 73.4847C458.623 73.0954 458.784 72.6946 458.784 72.2824C458.784 71.916 458.658 71.561 458.406 71.2175C458.177 70.8511 457.639 70.3587 456.791 69.7404C454.914 68.3663 453.253 67.1183 451.81 65.9961C450.391 64.874 449.314 63.8778 448.581 63.0075C447.871 62.1373 447.322 61.1984 446.933 60.1907C446.566 59.1831 446.383 58.1411 446.383 57.0648C446.383 55.164 446.921 53.3892 447.997 51.7403C449.097 50.0915 450.7 48.9006 452.807 48.1678C454.936 47.4121 457.524 47.0342 460.57 47.0342C463.753 47.0342 467.818 47.4464 472.765 48.2708L473.314 57.9236C470.543 56.8243 467.875 56.2747 465.311 56.2747C463.501 56.2747 462.185 56.4579 461.36 56.8243C460.559 57.1907 460.158 57.7518 460.158 58.5075C460.158 58.7594 460.204 58.9999 460.295 59.2289C460.387 59.4579 460.547 59.6984 460.776 59.9503C461.028 60.2022 461.326 60.4656 461.669 60.7404C462.036 60.9923 462.906 61.5991 464.28 62.561C465.654 63.5228 466.73 64.3129 467.509 64.9312C468.791 65.9389 469.765 66.8778 470.429 67.748C471.116 68.5954 471.631 69.5114 471.975 70.4961C472.341 71.458 472.524 72.4771 472.524 73.5534C472.524 75.1794 472.124 76.6794 471.322 78.0534C470.543 79.4046 469.353 80.5382 467.749 81.4542C466.169 82.3702 464.452 83 462.597 83.3435C460.742 83.7099 458.83 83.8931 456.86 83.8931C455.532 83.8931 453.86 83.7786 451.845 83.5496C449.852 83.3206 447.528 82.9198 444.871 82.3473ZM513.162 72.6259C512.864 74 512.292 77.3206 511.444 82.5878C508.788 83.1145 506.555 83.458 504.746 83.6183C502.937 83.8015 501.105 83.8931 499.25 83.8931C496.524 83.8931 494.017 83.6985 491.727 83.3092C489.437 82.9427 487.456 82.2786 485.784 81.3168C484.135 80.355 482.75 79.1641 481.627 77.7443C480.505 76.3015 479.646 74.5954 479.051 72.6259C478.479 70.6564 478.192 68.6297 478.192 66.5457C478.192 63.6144 478.776 60.7518 479.944 57.9579C481.112 55.1411 482.612 52.9426 484.444 51.3625C486.299 49.7823 488.429 48.6602 490.834 47.996C493.238 47.3319 495.7 46.9998 498.219 46.9998C500.83 46.9998 503.314 47.309 505.673 47.9273C508.055 48.5228 510.07 49.5762 511.719 51.0876C513.368 52.5991 514.536 54.3052 515.223 56.206C515.933 58.1068 516.288 60.1564 516.288 62.3549C516.288 63.6602 516.139 65.1144 515.841 66.7175L491.761 66.7518C491.738 67.1183 491.727 67.4503 491.727 67.748C491.727 70.2213 492.608 72.0419 494.372 73.2099C496.135 74.3778 498.288 74.9618 500.83 74.9618C502.341 74.9618 504.059 74.79 505.982 74.4465C507.929 74.0801 510.322 73.4732 513.162 72.6259ZM492.036 61.4961H503.372C503.395 61.1068 503.406 60.7747 503.406 60.4999C503.406 59.3091 503.189 58.29 502.753 57.4426C502.341 56.5953 501.734 55.977 500.933 55.5877C500.154 55.1984 499.272 55.0037 498.288 55.0037C497.601 55.0037 496.937 55.1182 496.295 55.3472C495.654 55.5533 495.07 55.8739 494.543 56.309C494.04 56.7213 493.616 57.2022 493.272 57.7518C492.929 58.3014 492.677 58.8396 492.517 59.3663C492.356 59.8701 492.196 60.5801 492.036 61.4961Z" fill="black"/>
</svg>
